<svg xmlns="http://www.w3.org/2000/svg" viewBox="0 0 100 100" width="100" height="100">
  <defs>
    <linearGradient id="b" gradientUnits="userSpaceOnUse" x1="44" y1="14" x2="54" y2="90"><stop offset="0" stop-color="#FDA90A"/><stop offset="1" stop-color="#F75F03"/></linearGradient>
    <linearGradient id="l" gradientUnits="userSpaceOnUse" x1="40" y1="12" x2="56" y2="82"><stop offset="0" stop-color="#FFC71C"/><stop offset=".55" stop-color="#FDA206"/><stop offset="1" stop-color="#FB8104"/></linearGradient>
    <radialGradient id="bg" cx="50%" cy="36%" r="80%"><stop offset="0" stop-color="#2c1707"/><stop offset=".58" stop-color="#130b15"/><stop offset="1" stop-color="#07050b"/></radialGradient>
  </defs>
  <rect width="100" height="100" rx="22" fill="url(#bg)"/>
  <g transform="translate(20,20) scale(0.6)">
    <path fill="url(#b)" d="M60.1 7.9 L61.4 7.9 L62.1 8.2 L64.8 8.2 L69.1 9.2 L72.2 10.3 L75.0 11.7 L77.2 13.1 L79.5 15.1 L82.0 17.7 L84.4 21.1 L86.8 25.9 L88.2 30.1 L89.2 35.4 L89.2 43.7 L88.5 48.1 L87.4 52.5 L85.9 56.3 L83.7 60.9 L80.3 66.3 L77.6 69.8 L71.2 76.5 L65.6 81.0 L61.8 83.5 L58.0 85.6 L53.2 87.8 L49.4 89.3 L43.4 90.9 L39.6 91.6 L34.7 92.1 L30.2 92.1 L26.1 91.6 L21.7 90.7 L18.2 89.3 L15.5 87.6 L13.3 85.4 L11.7 82.7 L10.7 78.8 L10.8 75.4 L12.2 71.0 L13.8 68.1 L15.3 65.5 L16.0 64.8 L16.7 63.2 L17.4 62.3 L20.5 55.7 L20.5 55.1 L20.8 54.9 L22.5 49.4 L23.3 44.7 L23.6 44.3 L23.6 43.2 L23.9 42.8 L23.9 41.5 L24.3 40.5 L24.3 39.4 L24.6 39.0 L25.3 35.4 L26.7 31.5 L28.4 28.0 L30.1 25.0 L32.1 22.6 L33.0 20.9 L37.5 16.5 L40.3 14.4 L43.5 12.4 L49.3 9.9 L54.8 8.5 L55.9 8.5 L56.5 8.2 L59.3 8.2 Z"/>
    <path fill="url(#l)" d="M60.1 8.2 L64.6 8.5 L65.5 8.9 L66.7 8.9 L67.0 9.2 L69.6 9.6 L74.9 12.0 L78.1 14.1 L81.3 17.3 L83.4 20.1 L85.4 23.5 L87.6 29.1 L82.8 23.1 L82.3 26.7 L81.4 30.1 L78.9 35.9 L75.4 40.8 L70.7 45.2 L65.6 48.6 L59.7 51.5 L53.2 54.1 L43.1 57.3 L36.1 60.1 L31.1 62.8 L26.9 65.8 L22.1 70.5 L18.8 75.1 L17.4 77.9 L16.3 81.2 L15.7 84.0 L15.7 87.2 L15.5 87.3 L13.8 85.5 L11.9 82.7 L10.8 77.9 L11.2 76.8 L11.2 75.3 L12.6 71.0 L18.1 61.7 L20.8 56.0 L22.9 49.4 L22.9 48.1 L23.6 46.3 L23.6 45.0 L23.9 44.6 L23.9 43.5 L24.3 42.8 L24.6 39.7 L25.0 39.0 L25.7 35.2 L27.1 31.4 L29.5 26.6 L31.2 23.9 L32.5 22.6 L33.3 21.1 L37.5 16.9 L43.2 13.0 L48.3 10.6 L51.3 9.6 L52.3 9.6 L53.0 9.2 L54.1 9.2 L54.5 8.9 L55.9 8.9 L56.8 8.5 L59.7 8.5 Z"/>
  </g>
</svg>
